<?xml version="1.0" encoding="UTF-8"?>
<svg width="63px" height="98px" viewBox="0 0 63 98" version="1.1" xmlns="http://www.w3.org/2000/svg" xmlns:xlink="http://www.w3.org/1999/xlink">
    <!-- Generator: sketchtool 62 (101010) - https://sketch.com -->
    <title>D7A6A551-7563-4DD6-8141-407BC3AD26A4</title>
    <desc>Created with sketchtool.</desc>
    <g id="Desktop-layouts" stroke="none" stroke-width="1" fill="none" fill-rule="evenodd">
        <g id="HUPS" transform="translate(-266.000000, -666.000000)" fill="#73BE9B">
            <path d="M311.999619,747.656228 L311.999619,751.42857 C311.999619,754.401827 309.874227,756.915198 306.961554,757.370512 L306.065025,760.799086 C305.618943,762.629486 303.939633,764 302.032781,764 L292.966838,764 C291.064465,764 289.38511,762.741029 288.934595,760.799086 L288.038065,757.370512 C285.23914,756.915152 283,754.397255 283,751.42857 L283,747.656228 C283,745.598171 284.565607,744 286.581729,744 L308.527541,744 C310.543663,744 312,745.602628 312,747.656228 L311.999619,747.656228 Z M297.331224,666.001758 C279.700649,666.116496 265.886157,680.463746 266.000707,698.089046 C266.114763,706.447421 269.369821,714.13043 274.761303,719.779202 C278.915645,724.073173 281.613632,729.721946 282.508469,735.595765 C282.955932,738.080321 285.092355,740 287.676241,740 L307.214857,740 C309.798743,740 311.930719,738.080321 312.382629,735.595765 C313.281936,729.721946 315.975453,724.182985 320.129795,719.779202 C325.630885,714.13043 329,706.337383 329,697.748989 C329.00439,680.12256 314.738538,665.891042 297.331448,666 L297.331224,666.001758 Z M297.057362,721 C284.34657,721 274,710.627336 274,698 C274,685.257427 284.346794,675 297.057362,675 C309.76793,675 320,685.372664 320,698 C320,710.742573 309.877256,721 297.057362,721 Z M301.118309,710.304401 C302.763119,709.858873 304.189497,708.963478 305.286037,707.622556 C308.357226,703.82253 307.149277,698.34076 302.874527,695.881657 C301.559557,695.099802 300.133178,694.540734 298.706799,693.981644 C297.940077,693.645318 297.061989,693.19979 296.402311,692.640721 C295.087341,691.522541 295.305772,689.731662 296.950581,688.94983 C297.387486,688.727066 297.828668,688.727066 298.37696,688.613504 C300.2402,688.499941 301.996418,688.836268 303.641228,689.731685 C304.519315,690.177212 304.737767,690.068011 305.067606,689.172594 C305.397424,688.277177 305.615876,687.272581 305.834329,686.377142 C306.052782,685.704489 305.834329,685.372524 305.174695,685.036219 C304.078155,684.590691 302.981615,684.254365 301.773667,684.031601 C300.133134,683.804476 300.133134,683.804476 300.133134,682.236362 C300.133134,680 300.133134,680 297.940055,680 L296.954879,680 C295.969704,680 295.746931,680.222764 295.746931,681.231788 L295.746931,682.572711 C295.746931,683.913633 295.746931,683.913633 294.431961,684.363589 C291.360773,685.48177 289.386124,687.718132 289.167693,691.186281 C288.949241,694.204475 290.594072,696.331702 293.005582,697.895366 C294.538983,698.790783 296.183793,699.349896 297.828602,700.131728 C298.488237,700.468055 299.03655,700.690819 299.58482,701.136347 C301.118221,702.477269 300.899791,704.604496 299.03655,705.495463 C298.051375,705.940991 296.954879,706.054553 295.965362,705.940991 C294.320553,705.718227 292.675743,705.268338 291.249364,704.486461 C290.371277,704.040933 290.152824,704.150135 289.822985,705.159114 C289.604533,705.940968 289.38608,706.836385 289.163351,707.618217 C288.833534,708.736398 288.944898,709.072747 290.041438,709.51823 C291.356408,710.190883 292.782787,710.522849 294.316188,710.750018 C295.412728,710.972782 295.524136,710.972782 295.524136,712.204548 L295.524136,713.881819 C295.524136,714.554472 295.853954,715 296.509312,715 L298.920822,715 C299.580456,715 299.905997,714.663674 299.905997,713.995382 L299.905997,711.75902 C300.021649,710.863603 300.351466,710.418097 301.118221,710.30449 L301.118309,710.304401 Z" id="bulb"></path>
        </g>
    </g>
</svg>