<?xml version="1.0" encoding="UTF-8"?>
<svg width="28px" height="27px" viewBox="0 0 28 27" version="1.1" xmlns="http://www.w3.org/2000/svg" xmlns:xlink="http://www.w3.org/1999/xlink">
    <!-- Generator: sketchtool 62 (101010) - https://sketch.com -->
    <title>CCDAA5D0-0EFE-42AD-AC20-FA320D94A4D0</title>
    <desc>Created with sketchtool.</desc>
    <g id="Desktop-layouts" stroke="none" stroke-width="1" fill="none" fill-rule="evenodd">
        <g id="luonti" transform="translate(-659.000000, -224.000000)">
            <g id="Group-9" transform="translate(450.000000, 208.000000)">
                <g id="Group-8" transform="translate(209.000000, 16.000000)">
                    <path d="M27.9466386,10.3136566 C28.0447837,10.5226028 28.0052324,10.7673364 27.847031,10.9376266 L19.093022,20.4406124 C18.9304256,20.6152112 18.6740716,20.6753184 18.4484713,20.5894515 C18.2228861,20.5050135 18.0734709,20.2932059 18.0734709,20.0570748 L18.0734709,15.196769 C17.3351702,14.9334384 15.1437804,14.429657 11.5754642,15.8322066 C7.04020957,17.6068446 5.61633311,22.5298734 5.6047081,22.5756701 C5.53732428,22.8203963 5.3132053,22.9921264 5.05390753,22.9992707 C4.79169976,23.0121524 4.55148201,22.853293 4.46796943,22.6099992 C3.34150577,18.4666857 4.27461173,14.0489587 6.98752202,10.6801579 C9.62129973,7.28977779 13.7052789,5.27322354 18.0616584,5.21313835 L18.0616584,0.570458267 C18.0616584,0.334319805 18.2110736,0.122493862 18.4366588,0.0380814972 C18.662244,-0.046330868 18.9186093,0.0123218037 19.0812095,0.186920574 L27.8468435,9.69540197 C28.0021162,9.86427799 28.0416674,10.1061429 27.9464511,10.3136566 L27.9466386,10.3136566 Z" id="Path" fill="#EAEAEE"></path>
                    <path d="M20.4166449,22.6481191 C20.094354,22.6481191 19.8333122,22.9091611 19.8333122,23.2314521 L19.8333122,25.8331361 L1.16666542,25.8331361 L1.16666542,6.58333302 C1.16666542,6.26104199 0.905623567,6 0.583332711,6 C0.261041855,6 0,6.26104199 0,6.58333302 L0,26.4166558 C0,26.5712381 0.0612490013,26.7199889 0.170624351,26.8293756 C0.279999701,26.938751 0.428750476,27 0.583343911,27 L20.4166561,27 C20.5712383,27 20.7199891,26.938751 20.8293756,26.8293756 C20.938751,26.7200001 21,26.5712493 21,26.4166558 L21,23.2316761 C21,23.0770938 20.938751,22.928343 20.8293756,22.8189564 C20.7200003,22.709581 20.5712495,22.6483319 20.4166561,22.6483319 L20.4166449,22.6481191 Z" id="Path" fill="#9CD2C8"></path>
                </g>
            </g>
        </g>
    </g>
</svg>